HIERARCHY
ROOT Hips
{
	OFFSET 0.000000 0.000000 0.000000
	CHANNELS 6 Xposition Yposition Zposition Zrotation Yrotation Xrotation 
	JOINT LHipJoint
	{
		OFFSET 0.000000 0.000000 0.000000
		CHANNELS 3 Zrotation Yrotation Xrotation
		JOINT LeftUpLeg
		{
			OFFSET 1.363060 -1.794630 0.839290
			CHANNELS 3 Zrotation Yrotation Xrotation
			JOINT LeftLeg
			{
				OFFSET 2.448110 -6.726130 0.000000
				CHANNELS 3 Zrotation Yrotation Xrotation
				JOINT LeftFoot
				{
					OFFSET 2.562200 -7.039590 0.000000
					CHANNELS 3 Zrotation Yrotation Xrotation
					JOINT LeftToeBase
					{
						OFFSET 0.157640 -0.433110 2.322550
						CHANNELS 3 Zrotation Yrotation Xrotation
						End Site
						{
							OFFSET 0.000000 0.000000 0.000000
						}
					}
				}
			}
		}
	}
	JOINT RHipJoint
	{
		OFFSET 0.000000 0.000000 0.000000
		CHANNELS 3 Zrotation Yrotation Xrotation
		JOINT RightUpLeg
		{
			OFFSET -1.305520 -1.794630 0.839290
			CHANNELS 3 Zrotation Yrotation Xrotation
			JOINT RightLeg
			{
				OFFSET -2.542530 -6.985550 0.000000
				CHANNELS 3 Zrotation Yrotation Xrotation
				JOINT RightFoot
				{
					OFFSET -2.568260 -7.056230 0.000000
					CHANNELS 3 Zrotation Yrotation Xrotation
					JOINT RightToeBase
					{
						OFFSET -0.164730 -0.452590 2.363150
						CHANNELS 3 Zrotation Yrotation Xrotation
						End Site
						{
							OFFSET 0.000000 0.000000 0.000000
						}
					}
				}
			}
		}
	}
}
MOTION
Frames: 24
Frame Time: 0.008333
-9.850179 15.462764 -0.830220 -71.597967 83.245327 -43.445220 -8.242926 -1.579502 -1.226424 -19.054471 -2.716543 -70.724591 -1.435983 3.747318 54.633786 2.754695 8.608469 -20.168159 -1.820800 0.000000 -5.459600 11.293606 -2.771515 -6.653196 14.386373 -16.749673 -26.251636 0.365244 -5.008455 62.498681 0.594711 9.588104 3.399197 1.584400 0.000000 -81.937300
-9.635147 15.419369 -0.828957 -69.134583 82.797452 -41.377373 -8.296119 -1.677989 -1.373101 -18.446806 -2.413858 -70.424793 -1.217686 3.865815 56.790520 2.928438 9.397002 -21.353651 -2.189300 0.000000 -2.335600 11.432821 -2.647042 -6.562224 13.835851 -16.316273 -26.420113 -0.005346 -5.072176 64.486662 0.514340 9.959680 6.131699 2.148200 -0.000001 -80.346300
-9.424319 15.379534 -0.827073 -66.466459 82.386035 -39.071187 -8.347826 -1.738136 -1.538684 -18.011245 -2.062971 -70.063510 -1.039156 3.983251 58.762452 3.086546 10.122913 -22.517274 -2.573000 0.000000 -0.267399 11.555360 -2.482199 -6.462262 13.288272 -15.747573 -26.778033 -0.363130 -5.129777 66.601751 0.395183 9.927289 8.431173 2.583900 0.000000 -77.993200
-9.217734 15.343982 -0.824883 -63.761847 82.022016 -36.694404 -8.401547 -1.765850 -1.718049 -17.738844 -1.679084 -69.630190 -0.900165 4.095110 60.512859 3.229620 10.776082 -23.662577 177.033100 -0.000001 -0.851800 11.656292 -2.288778 -6.359413 12.757612 -15.078072 -27.321177 -0.705290 -5.187903 68.815851 0.246512 9.398897 10.185021 2.792300 0.000000 -75.128600
-9.015301 15.313155 -0.822797 -61.171328 81.714647 -34.399721 -8.459855 -1.769474 -1.905893 -17.608364 -1.278362 -69.117945 -0.798108 4.196877 62.025184 3.359327 11.354311 -24.793036 176.633300 0.000000 -1.170999 11.733436 -2.077775 -6.259042 12.255549 -14.344149 -28.039469 -1.032140 -5.252527 71.095987 0.073952 8.322942 11.322498 2.711700 -0.000001 -71.993700
-8.816757 15.287240 -0.821341 -58.825731 81.470382 -32.319376 -8.524214 -1.757904 -2.096855 -17.589826 -0.876395 -68.523630 -0.728606 4.284384 63.299061 3.477583 11.861457 -25.906861 176.231500 0.000000 -0.860799 11.786811 -1.858236 -6.164749 11.792859 -13.577601 -28.918522 -1.344513 -5.327677 73.402762 -0.120730 6.701335 11.809145 2.334000 -0.000000 -68.747800
-8.621730 15.266134 -0.821041 -56.832129 81.292891 -30.562494 -8.594990 -1.739208 -2.285944 -17.649553 -0.486005 -67.849582 -0.686355 4.354627 64.347921 3.585944 12.303723 -26.998776 175.832001 0.000000 -0.111500 11.817957 -1.636812 -6.078214 11.377582 -12.803927 -29.940361 -1.642007 -5.415249 75.691857 -0.337929 4.595310 11.638359 1.708800 -0.000000 -65.427700
-8.429854 15.249590 -0.822334 -55.272447 81.182504 -29.211688 -8.671839 -1.719778 -2.468567 -17.754523 -0.117583 -67.104172 -0.665656 4.406089 65.195088 3.685623 12.688543 -28.061631 -4.561100 0.000000 -0.869200 11.829046 -1.418102 -5.998942 11.015746 -12.040389 -31.086641 -1.922345 -5.515207 77.916709 -0.577708 2.123229 10.829511 0.934600 -0.000001 -61.952000
-8.240661 15.237179 -0.825613 -54.201961 81.136717 -28.321170 -8.754254 -1.704122 -2.640921 -17.875928 0.222003 -66.301153 -0.661008 4.438953 65.870161 3.777306 13.022540 -29.087883 -4.943700 0.000000 -1.872100 11.822123 -1.205148 -5.924123 10.709264 -11.295624 -32.340738 -2.181437 -5.625926 80.030428 -0.837109 -0.549821 9.429941 0.139201 0.000000 -58.164399
-8.053755 15.228428 -0.831096 -53.653137 81.150410 -27.920868 -8.841932 -1.695194 -2.799943 -17.991087 0.528639 -65.459225 -0.667305 4.454887 66.406022 3.861165 13.310842 -30.069602 -5.311400 0.000000 -2.716399 11.798606 -1.000276 -5.849118 10.456412 -10.571601 -33.689115 -2.414102 -5.744725 81.989702 -1.108105 -3.231245 7.518648 -0.547300 0.000000 -53.899100
-7.868722 15.222805 -0.838871 -53.651551 81.216024 -28.031516 -8.935083 -1.695338 -2.943589 -18.082920 0.801496 -64.601307 -0.680141 4.456606 66.835720 3.936588 13.554915 -30.998906 -5.659000 -0.000000 -3.282300 11.758788 -0.805812 -5.768426 10.254421 -9.865827 -35.123023 -2.614793 -5.868439 83.757480 -1.376904 -5.726246 5.206164 -1.021801 -0.000000 -49.039001
-7.685268 15.219969 -0.848637 -54.154096 81.328042 -28.608400 -9.033568 -1.703205 -3.071527 -18.150482 1.042907 -63.744701 -0.696859 4.447512 67.184436 4.002542 13.754602 -31.865307 -5.980400 0.000000 -3.530400 11.702841 -0.621733 -5.675992 10.087648 -9.174016 -36.634045 -2.778959 -5.992913 85.303599 -1.625970 -7.866570 2.637196 -1.232300 -0.000000 -43.652799
-7.503224 15.219556 -0.860192 -55.150812 81.476562 -29.639202 -9.138193 -1.719333 -3.184820 -18.190669 1.260139 -62.908138 -0.715289 4.430996 67.475412 4.057190 13.905421 -32.659782 -6.268600 0.000000 -3.497600 11.629369 -0.449293 -5.567164 9.949561 -8.490860 -38.216171 -2.903042 -6.114435 86.606525 -1.836645 -9.531106 -0.030433 -1.187500 -0.000000 -37.938400
-7.322272 15.221264 -0.873237 -56.627235 81.652254 -31.106640 -9.249738 -1.743605 -3.285309 -18.204800 1.461694 -62.107481 -0.734480 4.410169 67.724932 4.098385 13.999686 -33.375043 -6.515800 -0.000000 -3.279100 11.536482 -0.288724 -5.439243 9.834810 -7.815035 -39.865391 -2.985744 -6.229321 87.651915 -1.993050 -10.654402 -2.617929 -0.950800 0.000001 -32.330400
-7.142383 15.225036 -0.887264 -58.527933 81.847412 -32.959445 -9.368584 -1.773746 -3.376814 -18.201769 1.660388 -61.346643 -0.754998 4.387755 67.939629 4.124197 14.030358 -34.005235 -6.715400 -0.000000 -3.001400 11.422940 -0.138759 -5.291218 9.734690 -7.146662 -41.571901 -3.028594 -6.333821 88.432212 -2.084694 -11.227023 -4.959473 -0.616900 -0.000000 -27.393600
-6.963303 15.230858 -0.901840 -60.805916 82.054182 -35.154106 -9.494638 -1.807127 -3.463402 -18.189755 1.868484 -60.624901 -0.778070 4.365784 68.120471 4.133191 13.990812 -34.548772 -6.862400 0.000001 -2.794601 11.288257 0.002091 -5.125042 9.645215 -6.491657 -43.325586 -3.035047 -6.425343 88.947712 -2.106988 -11.280586 -6.929475 -0.279100 -0.000001 -23.631400
-6.785320 15.238753 -0.916646 -63.421904 82.263740 -37.661955 -9.628285 -1.842124 -3.550151 -18.172223 2.100416 -59.933703 -0.804886 4.345679 68.265705 4.124431 13.877965 -35.005793 -6.954000 0.000000 -2.773901 11.132131 0.134345 -4.944456 9.568840 -5.854458 -45.109768 -3.009301 -6.502008 89.202917 -2.062450 -10.881218 -8.459620 -0.004900 0.000000 -21.345000
-6.607936 15.248849 -0.931263 -66.321187 82.471261 -40.434396 -9.768234 -1.874685 -3.640476 -18.156413 2.364268 -59.260334 -0.837274 4.327945 68.366578 4.098207 13.691890 -35.380173 -6.990500 -0.000000 -3.021400 10.956206 0.259805 -4.755862 9.505428 -5.250678 -46.910209 -2.954680 -6.563657 89.206623 -1.959284 -10.112493 -9.549237 0.176000 -0.000000 -20.600500
-6.431135 15.261262 -0.945559 -69.464472 82.670543 -43.441792 -9.913746 -1.902530 -3.737510 -18.142646 2.667084 -58.589612 -0.876221 4.312549 68.415629 4.055597 13.438280 -35.676287 -6.975001 -0.000000 -3.583000 10.761815 0.379157 -4.565590 9.460849 -4.690775 -48.708380 -2.873302 -6.610383 88.966256 -1.811694 -9.077512 -10.240951 0.265100 -0.000001 -21.294100
-6.254746 15.276018 -0.959421 -72.807936 82.857082 -46.648210 -10.063484 -1.923184 -3.842794 -18.129910 3.010814 -57.906122 -0.922300 4.298917 68.405156 3.998605 13.127112 -35.899710 -6.913400 -0.000000 -4.459800 10.550876 0.493343 -4.379820 9.441092 -4.185800 -50.487685 -2.765957 -6.642972 88.489325 -1.636897 -7.884881 -10.611759 0.283800 0.000000 -23.186600
-6.078493 15.293150 -0.972859 -76.309287 83.026915 -50.016147 -10.215861 -1.934793 -3.955846 -18.114484 3.392088 -57.197926 -0.975447 4.286078 68.329275 3.929961 12.771544 -36.057097 -6.813300 0.000000 -5.607601 10.325384 0.602784 -4.203672 9.453952 -3.745117 -52.234583 -2.632262 -6.662750 87.783311 -1.452644 -6.639844 -10.759124 0.260500 0.000001 -25.934100
-5.902129 15.312559 -0.985993 -79.924161 83.176660 -53.503256 -10.369114 -1.936292 -4.074465 -18.090847 3.803253 -56.458421 -1.034903 4.272947 68.185346 3.852745 12.386621 -36.154766 -6.683500 -0.000000 -6.957700 10.087350 0.707267 -4.040609 9.507638 -3.375196 -53.939330 -2.471108 -6.671463 86.856040 -1.274660 -5.434176 -10.786462 0.220600 -0.000000 -29.130600
-5.725347 15.334058 -0.998965 -83.601667 83.303771 -57.057160 -10.521226 -1.926903 -4.194896 -18.053870 4.232591 -55.685432 -1.099534 4.258321 67.973986 3.770126 11.986777 -36.200361 -6.532799 -0.000000 -8.413100 9.839101 0.805892 -3.892144 9.610072 -3.079769 -55.596587 -2.281294 -6.671198 85.717048 -1.114924 -4.338284 -10.789479 0.181000 0.000001 -32.354800
-5.547806 15.357368 -1.011932 -87.286661 83.407126 -60.618368 -10.670020 -1.906653 -4.312410 -17.998457 4.665716 -54.882826 -1.167821 4.241081 67.698663 3.684855 11.584447 -36.199790 -6.368600 0.000000 -9.880300 9.583110 0.897136 -3.757666 9.767735 -2.858632 -57.204873 -2.062098 -6.663969 84.376344 -0.981080 -3.397341 -10.840012 0.149900 0.000000 -35.249300
